<svg width="419" height="374" viewBox="0 0 419 374" fill="none" xmlns="http://www.w3.org/2000/svg">
<path d="M0 214.187C0 186.573 22.3858 164.187 50 164.187H67L67 373.187H50C22.3858 373.187 0 350.801 0 323.187L0 214.187Z" fill="#7367F0"/>
<path d="M209.411 373V306H418.411V323C418.411 350.614 396.026 373 368.411 373H209.411Z" fill="#7367F0"/>
<path d="M50.4114 373C22.7972 373 0.411438 350.614 0.411438 323L0.411438 306H209.411V373H50.4114Z" fill="#7367F0"/>
<path d="M142.411 67V50C142.411 22.3858 164.797 0 192.411 0L301.411 0C329.026 0 351.411 22.3858 351.411 50V67L142.411 67Z" fill="#7367F0"/>
<path d="M284.411 0L301.411 0C329.026 0 351.411 22.3858 351.411 50V159C351.411 186.614 329.026 209 301.411 209H284.411L284.411 0Z" fill="#7367F0"/>
<path d="M142.411 50C142.411 22.3858 164.797 0 192.411 0L209.411 0L209.411 373H142.411L142.411 50Z" fill="#7367F0"/>
</svg>
