<svg width="93" height="30" viewBox="0 0 93 30" fill="none" xmlns="http://www.w3.org/2000/svg">
<g clip-path="url(#clip0_1_555)">
<path d="M12.1405 0.00332642H12.9578C15.7953 0.0650121 18.5866 1.2062 20.5914 3.2264C19.8512 3.98205 19.0955 4.70686 18.3707 5.46251C17.245 4.4447 15.8879 3.6582 14.4074 3.38062C12.2176 2.91798 9.85809 3.33435 8.02294 4.58349C6.01815 5.89431 4.66107 8.115 4.36806 10.4899C4.04421 12.834 4.70733 15.3014 6.23405 17.1211C7.69909 18.8946 9.9352 20.0049 12.2484 20.082C14.4074 20.2054 16.6589 19.5423 18.2319 18.031C19.4656 16.9669 20.0362 15.3476 20.2213 13.7747C17.6613 13.7747 15.1014 13.7901 12.5414 13.7747V10.5978H23.321C23.8762 14.006 23.0743 17.8459 20.4835 20.2825C18.7563 22.0097 16.3659 23.0275 13.9294 23.228C11.5699 23.4593 9.13328 23.0121 7.03597 21.8709C4.52227 20.5292 2.51749 18.2623 1.53051 15.5944C0.605227 13.1424 0.589806 10.3665 1.45341 7.8991C2.2399 5.64757 3.7512 3.6582 5.6943 2.27028C7.5603 0.897769 9.82725 0.142119 12.1405 0.00332642Z" fill="#A3A5AA"/>
<path d="M73.9806 0.804565H77.2807V22.8264C76.1858 22.8264 75.0755 22.8418 73.9806 22.811C73.996 15.4858 73.9806 8.14517 73.9806 0.804565Z" fill="#A3A5AA"/>
<path d="M30.6618 8.43819C32.6974 8.05266 34.9027 8.48446 36.5836 9.70275C38.1103 10.7822 39.1744 12.4786 39.4983 14.3292C39.9147 16.4727 39.3903 18.8168 38.0024 20.5132C36.5065 22.41 34.0545 23.4278 31.6642 23.2736C29.4743 23.1502 27.3462 22.0553 26.0508 20.2664C24.5857 18.2925 24.231 15.5783 25.033 13.2651C25.8349 10.7822 28.1018 8.88541 30.6618 8.43819ZM31.1244 11.3683C30.2917 11.5842 29.5206 12.0622 28.9654 12.7408C27.4695 14.5297 27.5621 17.4443 29.2122 19.1098C30.1529 20.0659 31.5717 20.5132 32.8825 20.251C34.1008 20.0351 35.1649 19.2178 35.7509 18.1383C36.7687 16.3031 36.4757 13.774 34.9181 12.3398C33.9157 11.4145 32.4507 11.029 31.1244 11.3683Z" fill="#A3A5AA"/>
<path d="M47.0085 8.4382C49.3371 7.99098 51.8817 8.63868 53.6243 10.2733C56.4618 12.8179 56.7703 17.5831 54.3491 20.5132C52.8841 22.3638 50.5092 23.3816 48.1651 23.2736C45.929 23.2119 43.7237 22.1016 42.3975 20.2664C40.9016 18.2462 40.5778 15.4704 41.4259 13.1109C42.2741 10.7051 44.4948 8.87 47.0085 8.4382ZM47.4711 11.3683C46.6384 11.5842 45.8673 12.0622 45.3121 12.7254C43.8317 14.4834 43.8934 17.3518 45.4818 19.0327C46.4225 20.0351 47.8875 20.5286 49.2446 20.251C50.4475 20.0197 51.527 19.2178 52.113 18.1383C53.1154 16.2877 52.8224 13.7586 51.2494 12.3244C50.247 11.3991 48.782 11.029 47.4711 11.3683Z" fill="#A3A5AA"/>
<path d="M60.8724 9.3326C62.6459 8.22226 65.0054 7.91383 66.9176 8.86996C67.519 9.13212 68.0125 9.57934 68.4906 10.0266C68.506 9.61019 68.4906 9.17839 68.506 8.74659C69.5393 8.76201 70.5725 8.74659 71.6212 8.76201V22.3637C71.6057 24.4148 71.0814 26.5892 69.6009 28.0851C67.9817 29.7352 65.4988 30.2441 63.2627 29.9048C60.8724 29.5501 58.7905 27.8075 57.8652 25.6022C58.7905 25.155 59.7621 24.8003 60.7182 24.3839C61.2579 25.6485 62.3529 26.728 63.7254 26.9747C65.0979 27.2215 66.6863 26.8822 67.5807 25.741C68.5369 24.569 68.5369 22.9652 68.4906 21.531C67.7812 22.2249 66.9639 22.8418 65.9769 23.0731C63.8333 23.6745 61.4738 22.9343 59.8238 21.4847C58.1582 20.0351 57.1713 17.799 57.2638 15.5783C57.3101 13.0646 58.7288 10.6434 60.8724 9.3326ZM64.0646 11.3065C63.1239 11.4608 62.2449 11.9851 61.6435 12.7099C60.1939 14.4371 60.1939 17.1975 61.6589 18.8939C62.4917 19.8963 63.8333 20.4515 65.1287 20.3127C66.347 20.1893 67.4728 19.4182 68.0742 18.3541C69.092 16.5498 68.9224 14.0978 67.5499 12.5248C66.7017 11.5533 65.3446 11.0752 64.0646 11.3065Z" fill="#A3A5AA"/>
<path d="M81.2441 10.1191C83.0947 8.39194 85.9477 7.80592 88.3226 8.71579C90.5741 9.56397 92.0083 11.7076 92.7331 13.9128C89.3866 15.3007 86.0556 16.6733 82.7091 18.0612C83.1718 18.9402 83.8812 19.7421 84.8373 20.066C86.179 20.544 87.7828 20.3744 88.9086 19.48C89.3558 19.1407 89.7105 18.6935 90.0498 18.2617C90.8979 18.8323 91.7461 19.3874 92.5943 19.958C91.3914 21.7623 89.3712 23.0269 87.1968 23.2274C84.791 23.5204 82.2311 22.5951 80.6735 20.7137C78.1135 17.7528 78.3603 12.7871 81.2441 10.1191ZM82.8942 12.9721C82.3699 13.7278 82.154 14.653 82.1694 15.5629C84.4055 14.6376 86.6416 13.7123 88.8777 12.7716C88.5076 11.908 87.6132 11.3837 86.7033 11.2449C85.2383 10.9827 83.7115 11.7692 82.8942 12.9721Z" fill="#A3A5AA"/>
</g>
<defs>
<clipPath id="clip0_1_555">
<rect width="91.9118" height="30" fill="white" transform="translate(0.821289)"/>
</clipPath>
</defs>
</svg>
