<svg width="119" height="30" viewBox="0 0 119 30" fill="none" xmlns="http://www.w3.org/2000/svg">
<g clip-path="url(#clip0_1_547)">
<path fill-rule="evenodd" clip-rule="evenodd" d="M38.1678 23.6215L39.6475 20.1834C41.2456 21.3784 43.3749 21.9997 45.4758 21.9997C47.0265 21.9997 48.0082 21.4021 48.0082 20.4963C47.9845 17.9639 38.718 19.9462 38.6468 13.5963C38.6231 10.3715 41.4875 7.88649 45.5469 7.88649C47.9608 7.88649 50.3699 8.48403 52.0913 9.84507L50.7066 13.3544C49.1321 12.349 47.1735 11.6329 45.3098 11.6329C44.0436 11.6329 43.2089 12.2305 43.2089 12.994C43.2327 15.479 52.5703 14.1179 52.6652 20.1834C52.6652 23.4793 49.8719 25.7983 45.8599 25.7983C42.9197 25.7935 40.2213 25.1012 38.1678 23.6215ZM94.9857 18.9409C94.2459 20.2308 92.8612 21.1129 91.2583 21.1129C88.8918 21.1129 86.9854 19.2017 86.9854 16.84C86.9854 14.4783 88.8966 12.5672 91.2583 12.5672C92.8564 12.5672 94.2459 13.4492 94.9857 14.7392L99.0689 12.4723C97.5418 9.75023 94.6016 7.88649 91.2583 7.88649C86.312 7.88649 82.3 11.8985 82.3 16.8448C82.3 21.791 86.312 25.803 91.2583 25.803C94.6253 25.803 97.5418 23.963 99.0689 21.2172L94.9857 18.9409ZM54.7186 0.455261H59.8308V25.4616H54.7186V0.455261ZM101.075 0.455261V25.4616H106.187V17.9592L112.253 25.4616H118.797L111.081 16.5507L118.223 8.23742H111.963L106.182 15.1375V0.455261H101.075Z" fill="#A3A5AA"/>
<path d="M75.0205 18.9883C74.2807 20.2071 72.7537 21.1129 71.0322 21.1129C68.6658 21.1129 66.7594 19.2017 66.7594 16.84C66.7594 14.4783 68.6705 12.5672 71.0322 12.5672C72.7537 12.5672 74.2807 13.5204 75.0205 14.7629V18.9883ZM75.0205 8.24216V10.2719C74.1859 8.86341 72.1087 7.88174 69.932 7.88174C65.441 7.88174 61.908 11.8463 61.908 16.8163C61.908 21.7863 65.441 25.7983 69.932 25.7983C72.104 25.7983 74.1811 24.8214 75.0205 23.4081V25.4379H80.1327V8.24216H75.0205Z" fill="#A3A5AA"/>
<path fill-rule="evenodd" clip-rule="evenodd" d="M6.56963 18.9646C6.56963 20.7098 5.16116 22.1182 3.41598 22.1182C1.6708 22.1182 0.262329 20.705 0.262329 18.9646C0.262329 17.2241 1.6708 15.8109 3.41598 15.8109H6.56963V18.9646ZM8.14409 18.9646C8.14409 17.2194 9.55256 15.8109 11.2977 15.8109C13.0429 15.8109 14.4514 17.2194 14.4514 18.9646V26.8463C14.4514 28.5915 13.0429 30 11.2977 30C9.55256 30 8.14409 28.5915 8.14409 26.8463V18.9646Z" fill="#A3A5AA"/>
<path fill-rule="evenodd" clip-rule="evenodd" d="M11.2978 6.3073C9.55259 6.3073 8.14412 4.89883 8.14412 3.15365C8.14412 1.40847 9.55259 0 11.2978 0C13.0429 0 14.4514 1.40847 14.4514 3.15365V6.3073H11.2978ZM11.2978 7.90547C13.0429 7.90547 14.4514 9.31394 14.4514 11.0591C14.4514 12.8043 13.0429 14.2128 11.2978 14.2128H3.3923C1.64712 14.2128 0.238647 12.7996 0.238647 11.0591C0.238647 9.31868 1.64712 7.90547 3.3923 7.90547H11.2978Z" fill="#A3A5AA"/>
<path fill-rule="evenodd" clip-rule="evenodd" d="M23.9313 11.0591C23.9313 9.31394 25.3398 7.90547 27.085 7.90547C28.8301 7.90547 30.2386 9.31394 30.2386 11.0591C30.2386 12.8043 28.8301 14.2128 27.085 14.2128H23.9313V11.0591ZM22.3569 11.0591C22.3569 12.8043 20.9484 14.2128 19.2032 14.2128C17.458 14.2128 16.0496 12.8043 16.0496 11.0591V3.15365C16.0496 1.40847 17.458 0 19.2032 0C20.9484 0 22.3569 1.40847 22.3569 3.15365V11.0591Z" fill="#A3A5AA"/>
<path fill-rule="evenodd" clip-rule="evenodd" d="M19.2032 23.6927C20.9484 23.6927 22.3569 25.1012 22.3569 26.8463C22.3569 28.5915 20.9484 30 19.2032 30C17.458 30 16.0496 28.5915 16.0496 26.8463V23.6927H19.2032ZM19.2032 22.1182C17.458 22.1182 16.0496 20.7098 16.0496 18.9646C16.0496 17.2194 17.458 15.8109 19.2032 15.8109H27.1087C28.8539 15.8109 30.2623 17.2194 30.2623 18.9646C30.2623 20.7098 28.8539 22.1182 27.1087 22.1182H19.2032Z" fill="#A3A5AA"/>
</g>
<defs>
<clipPath id="clip0_1_547">
<rect width="118.558" height="30" fill="white" transform="translate(0.238647)"/>
</clipPath>
</defs>
</svg>
